<?xml version="1.0" encoding="utf-8"?>

<!DOCTYPE svg PUBLIC "-//W3C//DTD SVG 1.0//EN" "http://www.w3.org/TR/2001/REC-SVG-20010904/DTD/svg10.dtd">
<!-- Uploaded to: SVG Repo, www.svgrepo.com, Generator: SVG Repo Mixer Tools -->
<svg version="1.0" id="Layer_1" xmlns="http://www.w3.org/2000/svg" xmlns:xlink="http://www.w3.org/1999/xlink" 
	 width="800px" height="800px" viewBox="0 0 64 64" enable-background="new 0 0 64 64" xml:space="preserve">
<g>
	<path fill="#F9EBB2" d="M32,2c6,4,14,14,14,30c0,4.401-0.539,8.531-1.221,12H19.221C18.539,40.531,18,36.401,18,32C18,16,26,6,32,2
		z"/>
	<path fill="#F9EBB2" d="M2,44l14.117-8.471c0.234,3.901,0.814,7.484,1.472,10.471H2V44z"/>
	<path fill="#45AAB8" d="M2,50v-2h16.059c0.182,0.728,0.362,1.396,0.54,2.022c-0.003-0.008-0.005-0.015-0.007-0.022H2z"/>
	<path fill="#F76D57" d="M32,62c-1,0-3-2-3-6h6C35,60,33,62,32,62z"/>
	<path fill="#45AAB8" d="M42,54H22c0,0-1.254-3.136-2.357-8h24.715C43.254,50.864,42,54,42,54z"/>
	<path fill="#45AAB8" d="M62,50H45.408c-0.002,0.008-0.004,0.015-0.007,0.022c0.178-0.626,0.358-1.295,0.54-2.022H62V50z"/>
	<path fill="#F9EBB2" d="M62,46H46.411c0.657-2.986,1.237-6.569,1.472-10.471L62,44V46z"/>
	<g>
		<path fill="#394240" d="M63.029,42.285l-15.054-9.032c0,0.004,0,0.009-0.001,0.013C47.984,32.844,48,32.427,48,32
			c0-16.026-7.692-26.865-14.891-31.664C32.773,0.112,32.387,0,32,0s-0.773,0.112-1.109,0.336C23.692,5.135,16,15.974,16,32
			c0,0.427,0.016,0.844,0.025,1.266c-0.001-0.004-0.001-0.009-0.001-0.013L0.971,42.285C0.368,42.646,0,43.297,0,44v6
			c0,1.104,0.896,2,2,2h17.188c0.516,1.627,0.904,2.617,0.954,2.742C20.447,55.502,21.183,56,22,56h5c0,4.785,2.585,8,5,8
			c2.396,0,4.961-3.166,5-7.891c0.002-0.036,0.003-0.072,0.003-0.109H42c0.817,0,1.553-0.498,1.857-1.258
			c0.05-0.125,0.438-1.115,0.954-2.742H62c1.104,0,2-0.896,2-2v-6C64,43.297,63.632,42.646,63.029,42.285z M2,44l14.117-8.471
			c0.234,3.901,0.814,7.484,1.472,10.471H2V44z M18.592,50H2v-2h16.059c0.182,0.728,0.362,1.396,0.54,2.022
			C18.596,50.015,18.594,50.008,18.592,50z M32,62c-1,0-3-2-3-6h6C35,60,33,62,32,62z M42,54H22c0,0-1.254-3.136-2.357-8h24.715
			C43.254,50.864,42,54,42,54z M44.779,44H19.221C18.539,40.531,18,36.401,18,32c0-16,8-26,14-30c6,4,14,14,14,30
			C46,36.401,45.461,40.531,44.779,44z M62,50H45.408c-0.002,0.008-0.004,0.015-0.007,0.022c0.178-0.626,0.358-1.295,0.54-2.022H62
			V50z M62,46H46.411c0.657-2.986,1.237-6.569,1.472-10.471L62,44V46z"/>
		<path fill="#394240" d="M32,18c-3.313,0-6,2.687-6,6s2.687,6,6,6s6-2.687,6-6S35.313,18,32,18z M32,28c-2.209,0-4-1.791-4-4
			s1.791-4,4-4s4,1.791,4,4S34.209,28,32,28z"/>
	</g>
	<circle fill="#B4CCB9" cx="32" cy="24" r="4"/>
	<g opacity="0.15">
		<path fill="#231F20" d="M2,44v2h15.589c-0.657-2.986-1.237-6.569-1.472-10.471L2,44z"/>
		<path fill="#231F20" d="M47.883,35.529c-0.234,3.901-0.814,7.484-1.472,10.471H62v-2L47.883,35.529z"/>
	</g>
	<g opacity="0.2">
		<path fill="#231F20" d="M2,48v2h16.592c0.002,0.008,0.004,0.015,0.007,0.022c-0.178-0.626-0.358-1.295-0.54-2.022H2z"/>
		<path fill="#231F20" d="M45.941,48c-0.182,0.728-0.362,1.396-0.54,2.022c0.003-0.008,0.005-0.015,0.007-0.022H62v-2H45.941z"/>
	</g>
</g>
</svg>